PathFileType	4	(X/Y/Z)	C:/Users/opensim2020/Desktop/walking_exp_matlab/subject02_walking08_straight_03.trc	
DataRate	CameraRate	NumFrames	NumMarkers	Units	OrigDataRate	OrigDataStartFrame	OrigNumFrames	
100.00	100.00	9	41	mm	100.00	2404	252	
Frame#	Time	LFHD			RFHD			LBHD			RBHD			C7			T10			CLAV			STRN			RBAK			LSHO			LUPA			LELB			LFRM			LWRA			LWRB			LFIN			RSHO			RUPA			RELB			RFRM			RWRA			RWRB			RFIN			LASI			RASI			LPSI			RPSI			LTHI			LKNE			LTIB			LANK			LHEE			LTOE			RTHI			RKNE			RTIB			RANK			RHEE			RTOE			*39			*40			
		X1	Y1	Z1	X2	Y2	Z2	X3	Y3	Z3	X4	Y4	Z4	X5	Y5	Z5	X6	Y6	Z6	X7	Y7	Z7	X8	Y8	Z8	X9	Y9	Z9	X10	Y10	Z10	X11	Y11	Z11	X12	Y12	Z12	X13	Y13	Z13	X14	Y14	Z14	X15	Y15	Z15	X16	Y16	Z16	X17	Y17	Z17	X18	Y18	Z18	X19	Y19	Z19	X20	Y20	Z20	X21	Y21	Z21	X22	Y22	Z22	X23	Y23	Z23	X24	Y24	Z24	X25	Y25	Z25	X26	Y26	Z26	X27	Y27	Z27	X28	Y28	Z28	X29	Y29	Z29	X30	Y30	Z30	X31	Y31	Z31	X32	Y32	Z32	X33	Y33	Z33	X34	Y34	Z34	X35	Y35	Z35	X36	Y36	Z36	X37	Y37	Z37	X38	Y38	Z38	X39	Y39	Z39	X40	Y40	Z40	X41	Y41	Z41	

190	1.890	-1028.67236	424.43332	1722.75220	-891.99750	377.57983	1705.45142	-1079.93579	291.59418	1673.22217	-948.78900	232.73109	1657.27893	-999.94781	188.97234	1536.51831	-981.54651	126.18174	1257.14648	-1016.90424	321.32779	1458.78577	-1004.06677	370.92685	1288.10645	-922.81592	127.82191	1362.35327	-1180.87622	238.82468	1499.78894	-1256.14233	194.47414	1301.27856	-1264.67102	174.48726	1162.12524	-1280.76062	169.48221	1030.63306	-1262.19116	219.19395	900.36676	-1286.59729	168.45732	907.40765	-1292.99133	181.64600	841.39642	-819.10461	275.68188	1504.63855	-721.09039	271.23264	1317.22607	-698.49158	304.22137	1173.79114	-681.33838	358.39993	1065.81384	-702.66901	432.25876	953.66681	-667.45081	389.24921	940.04102	-665.84961	440.55331	888.91882	-1126.65540	353.70859	998.42780	-868.11072	362.84106	981.21295	-1036.92407	146.60312	1035.89282	-922.28308	145.38972	1036.51636	-1197.65540	349.82892	694.69928	-1176.12402	384.48285	499.95038	-1176.34546	347.26361	309.84171	-1162.75989	379.46417	86.05523	-1105.58740	360.20270	53.80978	-1205.10767	528.47998	62.77625	-812.18335	268.26465	674.45190	-858.19116	245.66785	465.18463	-855.83289	187.14359	285.22879	-897.16608	151.24707	94.59513	-953.54858	113.59314	41.26084	-876.78003	299.95755	38.91505	-969.35822	313.92688	1806.33508	-3357.29175	2845.97485	1033.94580 
191	1.900	-1030.41418	433.37729	1721.71655	-893.65729	386.54263	1704.64514	-1081.34119	300.40198	1671.96375	-950.15302	241.52600	1656.17700	-1000.92670	197.71028	1535.63342	-982.90863	134.39224	1256.39063	-1017.71155	329.97302	1457.68225	-1004.34479	378.61624	1286.85120	-923.70477	136.15764	1361.77698	-1181.83862	247.62721	1498.46387	-1256.92725	201.93111	1300.28870	-1265.06775	180.90186	1161.39282	-1281.65051	174.47220	1029.98621	-1263.54932	223.20021	898.96863	-1287.14014	172.20496	906.66113	-1293.77417	184.69168	840.53784	-820.15729	284.13132	1504.20959	-721.89954	280.87451	1316.80969	-699.12262	314.63803	1173.36670	-682.45050	370.07645	1066.20874	-704.37262	445.40628	954.89398	-668.83563	402.46442	940.51422	-667.47900	454.76901	890.33337	-1126.99426	363.00034	997.78912	-868.13409	370.30338	980.53748	-1038.15442	155.27798	1034.65271	-923.77472	153.12338	1035.30994	-1198.05042	358.99094	693.82092	-1176.75024	395.02002	499.08127	-1179.22131	365.78549	307.26804	-1167.05481	407.05942	84.73367	-1110.63391	388.22202	51.88654	-1207.65247	557.85388	66.85974	-812.76672	273.25946	673.82233	-858.76855	249.18568	464.83292	-856.34521	188.78006	285.42114	-897.50226	151.51749	94.88087	-953.54663	113.63319	41.69545	-876.63391	299.97754	38.84899	-971.29742	322.86700	1805.39038	-3357.55249	2845.86499	1034.16235 
192	1.910	-1031.91235	442.11194	1720.30469	-895.47852	395.16470	1703.60718	-1082.95850	309.24567	1670.64648	-951.64832	250.40045	1655.52979	-1002.16028	206.41292	1534.66028	-984.27631	142.69745	1255.46509	-1018.67645	338.66898	1456.47815	-1004.76154	387.11627	1285.62219	-924.90765	144.07878	1361.26099	-1182.86450	256.42465	1496.91614	-1257.70471	209.52040	1299.16858	-1265.63708	187.34386	1160.33606	-1282.36963	179.67130	1029.27173	-1264.48779	227.33176	897.81415	-1287.74390	176.23056	905.84241	-1294.51111	187.98926	839.59717	-821.24213	293.02402	1503.41699	-722.75128	290.41245	1316.36755	-699.69446	325.22891	1173.07605	-683.59009	381.86279	1066.42334	-706.12134	458.03699	955.89148	-670.52332	415.75256	941.06897	-669.34949	468.56064	891.57739	-1127.22693	372.44324	997.08929	-868.16364	378.01587	979.85876	-1039.50647	164.15187	1033.30164	-925.35358	160.97223	1033.91089	-1198.73938	368.05310	692.94507	-1177.74170	405.51675	498.16046	-1182.35730	383.94922	305.17935	-1171.19214	433.66623	84.31087	-1115.07678	415.19553	50.60382	-1209.30444	586.02393	71.31157	-813.31372	278.36307	673.17725	-859.24573	252.49330	464.37802	-856.80981	190.47069	285.61060	-897.83209	151.87582	95.18789	-954.14978	113.93069	41.84608	-876.49384	299.97327	38.76708	-973.14368	331.78366	1804.30615	-3357.30396	2845.80005	1034.14600 
193	1.920	-1033.80249	451.08765	1719.01611	-897.05908	404.11444	1702.64685	-1084.56958	318.08670	1669.18909	-953.08301	259.39981	1654.30005	-1003.52399	215.06612	1533.58032	-985.76752	150.95970	1254.44849	-1019.71185	347.38519	1455.19788	-1005.29388	395.62543	1284.36987	-925.88641	152.82115	1360.23499	-1184.12024	265.42899	1495.54114	-1258.34167	217.21196	1297.92432	-1266.27747	194.16823	1159.39966	-1283.12500	185.15053	1028.16321	-1265.73547	231.73889	896.41302	-1288.40930	180.49268	904.89465	-1295.31531	191.55402	838.57147	-822.50989	301.52167	1502.64612	-723.68982	299.51886	1315.64160	-700.42944	335.67410	1172.51648	-685.09637	393.27567	1066.18262	-708.16656	470.28903	956.67834	-672.12891	428.61749	941.33313	-671.63947	482.03595	892.58856	-1127.40271	382.01218	996.28784	-868.19086	385.66821	979.08252	-1040.96948	173.05136	1031.95911	-927.04803	168.77615	1032.55347	-1199.56409	377.15079	692.04407	-1179.06519	416.05612	497.22845	-1185.51038	401.72012	303.69943	-1174.97107	459.27243	84.23232	-1119.31543	440.79761	50.05706	-1209.78601	613.02924	75.91654	-813.86438	283.50708	672.49994	-859.77911	256.02423	463.91492	-857.38373	192.25449	285.72391	-898.20416	152.26041	95.46351	-954.45441	114.43573	41.87031	-876.38733	300.02179	38.70453	-975.17029	340.64056	1803.15125	-3360.29004	2845.17334	1034.06519 
194	1.930	-1035.57288	459.97540	1717.58887	-898.92676	412.83804	1701.69604	-1086.26978	326.96387	1667.68127	-954.82489	268.22559	1653.09607	-1005.07678	223.82492	1532.34595	-987.38843	159.36200	1253.31628	-1020.87543	356.10349	1453.83398	-1005.89056	404.21643	1283.08142	-927.27539	161.34172	1359.21375	-1185.37476	274.43344	1493.76465	-1259.78760	225.19913	1296.69043	-1267.02002	201.11658	1158.18237	-1283.56006	190.86934	1027.00244	-1267.14453	236.43111	894.74371	-1289.17480	185.05496	903.83551	-1296.06873	195.33664	837.38049	-823.76984	309.98639	1501.70044	-724.90375	308.76334	1314.75928	-701.41443	345.86853	1171.79944	-686.37573	404.77524	1066.30103	-710.21014	482.68216	957.46301	-674.06049	441.20804	941.48212	-673.88391	495.21539	893.38141	-1127.43372	391.70834	995.38391	-868.23242	393.54309	978.24384	-1042.52258	182.12521	1030.54016	-928.86694	176.80659	1031.11145	-1200.74829	386.40555	691.26001	-1180.55847	426.78311	496.32034	-1188.42371	419.00250	302.61368	-1178.58105	483.73007	84.91087	-1123.45288	464.99619	49.86427	-1209.62451	638.57257	80.43745	-814.43591	288.68869	671.79913	-860.35437	259.80948	463.34555	-857.91345	194.31235	285.77780	-898.51245	152.58134	95.79395	-954.72906	114.56940	42.17928	-876.35547	299.97287	38.60863	-977.29852	349.47336	1801.93042	-3357.34717	2845.96582	1034.17285 
195	1.940	-1037.46497	468.83612	1716.16870	-900.77057	421.67288	1700.45593	-1088.16443	335.85458	1666.18872	-956.83405	276.72162	1652.12537	-1006.66956	232.53142	1531.00110	-989.08588	167.86177	1252.06848	-1022.11169	364.85541	1452.45435	-1006.54016	412.59747	1281.71777	-928.87219	169.89482	1358.09460	-1186.83264	283.49542	1492.04602	-1260.80151	233.28748	1295.12000	-1267.94153	208.23779	1156.87439	-1284.13403	196.73479	1025.75403	-1268.22986	241.37248	893.34216	-1289.98621	189.92358	902.71808	-1296.90063	199.55925	836.11328	-825.12793	318.57047	1500.55432	-726.41705	317.74298	1313.55322	-702.54352	355.82562	1171.04382	-687.93500	415.83694	1065.90454	-712.11377	495.08105	958.12982	-676.19757	453.92496	941.55334	-675.87848	508.50714	894.23511	-1127.37756	401.56277	994.38361	-868.24243	401.33368	977.18500	-1044.19629	191.30734	1029.07495	-930.74493	184.89377	1029.67285	-1202.09985	395.98947	690.55273	-1182.03699	437.82043	495.31219	-1191.21704	435.68759	301.84814	-1181.85730	506.92288	85.93678	-1127.42188	487.86786	50.01066	-1208.86707	662.71167	84.93243	-815.12061	294.04941	671.06482	-860.91656	263.88556	462.74106	-858.29449	196.44002	285.85431	-898.80054	153.00908	96.17820	-954.90320	114.75891	42.33322	-876.26788	299.97656	38.54224	-979.32050	358.34482	1800.68127	-3360.26367	2845.18018	1033.99072 
196	1.950	-1039.13953	477.77710	1714.65564	-902.69843	430.39273	1699.34265	-1090.12610	344.74167	1664.66260	-958.35614	285.21503	1650.87390	-1008.52277	241.25282	1529.69043	-990.89893	176.63545	1250.71179	-1023.51392	373.57693	1451.09314	-1007.37750	421.56299	1280.49365	-930.97656	178.39101	1356.87610	-1188.47791	292.57458	1490.29431	-1261.84985	241.52199	1293.48108	-1268.95313	215.66020	1155.45056	-1285.38892	203.01146	1024.52917	-1269.52698	246.62848	891.67377	-1290.95264	195.12172	901.48438	-1297.81909	204.04945	834.74799	-826.72974	326.87219	1499.38098	-727.64722	326.99670	1312.68958	-703.87439	365.69370	1170.12146	-689.63531	426.74799	1065.32703	-714.39142	507.03619	958.57031	-678.35681	466.06131	941.54724	-678.22107	521.31384	894.85901	-1127.32239	411.53830	993.29871	-868.28204	409.30130	976.03534	-1046.08887	200.69830	1027.61829	-932.69537	193.20377	1028.28674	-1203.54248	406.11374	689.89331	-1183.71826	449.07608	494.67996	-1193.87512	451.88028	301.24969	-1185.18274	528.58234	87.33008	-1131.12280	509.23337	50.62201	-1208.13843	685.22980	89.35535	-815.79749	299.67126	670.32806	-861.40710	267.92261	461.98724	-858.69397	198.90402	285.91376	-898.98047	153.50078	96.60220	-955.23981	114.86581	43.02011	-876.13708	300.03293	38.45153	-981.67889	367.15945	1799.29517	-3357.50659	2845.92017	1034.14331 
197	1.960	-1041.15710	486.65088	1713.21594	-904.72949	439.10660	1698.21130	-1092.19910	353.66010	1663.25061	-960.70245	294.14960	1649.82715	-1010.42078	250.01770	1528.34460	-992.87769	185.46815	1249.32031	-1025.04175	382.47235	1449.70813	-1008.26617	430.44540	1279.19019	-932.94434	186.97701	1355.57764	-1190.35144	301.78491	1488.61267	-1263.54004	250.02882	1291.79590	-1270.11084	223.30225	1153.91809	-1286.19727	209.53049	1023.10187	-1271.00049	252.14134	889.71600	-1292.03259	200.65579	900.15625	-1298.81201	208.92081	833.28662	-828.37622	335.32120	1498.38123	-729.01587	335.98016	1311.48071	-705.33118	375.52332	1169.11145	-691.63885	437.66815	1064.99768	-716.74280	518.69598	958.94128	-680.60083	478.06033	941.36261	-680.78772	533.55853	895.27734	-1127.25708	421.68173	992.13953	-868.38629	417.42261	974.80286	-1048.05286	210.05464	1026.17322	-934.65942	201.77405	1026.92065	-1205.09680	416.70273	689.24902	-1185.11951	460.50101	493.86325	-1196.53467	467.46219	300.67059	-1187.83936	548.94507	88.33157	-1134.30005	529.32758	50.63748	-1207.49670	705.95209	93.53126	-816.52014	305.46939	669.53693	-861.95068	272.59634	461.45264	-859.23462	201.47426	286.01706	-899.22357	153.99821	97.10621	-955.52808	115.02386	43.60940	-876.03668	300.09912	38.38472	-984.07056	376.01385	1798.00684	-3357.55200	2845.88232	1034.14539 
198	1.970	-1043.21753	495.53940	1711.78479	-906.86035	447.81308	1697.06384	-1094.38367	362.59027	1661.74609	-962.81976	303.26212	1648.38867	-1012.48035	258.85135	1526.97095	-994.94495	194.32690	1247.90515	-1026.67712	391.35236	1448.31897	-1009.26465	439.27478	1277.84875	-935.12201	195.56133	1354.28345	-1192.28064	310.91245	1486.78162	-1265.04810	258.63654	1290.07031	-1271.35791	231.14566	1152.34729	-1287.62183	216.48865	1021.75586	-1272.13342	258.05399	888.12683	-1293.18042	206.53795	898.76062	-1299.84167	214.21475	831.79681	-829.95166	343.61710	1496.99597	-730.81403	344.92981	1310.22449	-706.91791	385.36328	1168.03528	-693.59326	448.30533	1064.44189	-719.24536	529.81433	959.05634	-683.05640	489.77231	941.07196	-683.42065	545.64996	895.61005	-1127.29736	431.92523	990.98419	-868.33466	425.69055	973.47894	-1050.17664	219.57304	1024.71753	-936.75519	210.50890	1025.51880	-1206.53516	427.73639	688.57666	-1186.35278	471.99994	493.07495	-1199.09631	482.43048	300.16290	-1190.00598	567.82544	89.13309	-1137.09961	547.98138	50.37103	-1206.95703	724.98572	97.28949	-817.36249	311.64566	668.61060	-862.37286	277.15155	460.76675	-859.69025	204.14305	286.13849	-899.41956	154.52161	97.72924	-955.79510	114.93639	44.50544	-875.93652	300.16544	38.26965	-986.24426	384.96109	1796.80176	-3357.35327	2845.88135	1034.14392 
